<?xml version="1.0" encoding="UTF-8" standalone="no"?>
<svg width="181px" height="33px" viewBox="0 0 181 33" version="1.1" xmlns="http://www.w3.org/2000/svg" xmlns:xlink="http://www.w3.org/1999/xlink" xmlns:sketch="http://www.bohemiancoding.com/sketch/ns">
    <!-- Generator: Sketch 3.5.1 (25234) - http://www.bohemiancoding.com/sketch -->
    <title>Christies</title>
    <desc>Created with Sketch.</desc>
    <defs></defs>
    <g id="Page-1" stroke="none" stroke-width="1" fill="none" fill-rule="evenodd" sketch:type="MSPage">
        <g id="ericmoreland_logooptions_final_-07" sketch:type="MSLayerGroup" transform="translate(-186.000000, -9.000000)" fill="#AAAFAF">
            <g id="Christies" transform="translate(186.000000, 9.000000)" sketch:type="MSShapeGroup">
                <path d="M14.57,25.707 L15.684,25.707 L15.684,32.783 L14.57,32.783 L14.57,25.707 Z" id="Fill-1"></path>
                <path d="M23.382,32.898 L19.215,27.562 C19.095,27.405 18.945,27.206 18.869,27.017 L18.814,27.017 C18.814,27.164 18.827,27.457 18.827,27.73 L18.827,32.783 L17.894,32.783 L17.894,25.739 L19.086,25.655 L19.172,25.707 L22.678,30.32 C22.787,30.467 23.111,30.863 23.166,31.063 L23.209,31.063 C23.209,30.876 23.198,30.518 23.198,30.268 L23.198,25.707 L24.129,25.707 L24.129,32.898 L23.382,32.898" id="Fill-2"></path>
                <path d="M29.154,26.514 L29.154,32.783 L28.039,32.783 L28.039,26.514 L25.377,26.514 L25.377,25.707 L31.806,25.707 L31.806,26.514 L29.154,26.514" id="Fill-3"></path>
                <path d="M37.425,32.783 L33.052,32.783 L33.052,25.707 L37.295,25.707 L37.295,26.503 L34.167,26.503 L34.167,28.601 L36.959,28.601 L36.959,29.408 L34.167,29.408 L34.167,31.652 C34.167,31.923 34.308,31.986 34.502,31.986 L37.543,31.986 L37.425,32.783" id="Fill-4"></path>
                <path d="M43.491,32.836 L43.415,32.785 L40.439,29.114 L40.817,29.114 C41.748,29.114 42.636,28.748 42.636,27.71 C42.636,26.609 41.835,26.388 40.785,26.388 L40.136,26.388 L40.136,32.785 L39.021,32.785 L39.021,25.707 L41.186,25.707 C42.397,25.707 43.837,25.968 43.837,27.521 C43.837,28.6 43.004,29.25 42.084,29.48 L44.844,32.751 L43.491,32.836" id="Fill-5"></path>
                <path d="M51.579,32.898 L47.411,27.562 C47.293,27.405 47.14,27.206 47.065,27.017 L47.01,27.017 C47.01,27.164 47.022,27.457 47.022,27.73 L47.022,32.783 L46.091,32.783 L46.091,25.739 L47.282,25.655 L47.369,25.707 L50.875,30.32 C50.983,30.467 51.308,30.863 51.362,31.063 L51.406,31.063 C51.406,30.876 51.393,30.518 51.393,30.268 L51.393,25.707 L52.326,25.707 L52.326,32.898 L51.579,32.898" id="Fill-6"></path>
                <path d="M59.24,32.835 L59.154,32.785 L58.321,30.569 L55.387,30.569 L54.467,32.785 L54.38,32.835 L53.526,32.752 L56.632,25.519 L57.477,25.519 L60.344,32.752 L59.24,32.835 L59.24,32.835 Z M57.195,27.616 C57.076,27.311 56.957,26.995 56.934,26.714 L56.892,26.714 C56.859,26.995 56.707,27.354 56.588,27.636 L55.659,29.868 L58.05,29.868 L57.195,27.616 L57.195,27.616 Z" id="Fill-7"></path>
                <path d="M63.588,26.514 L63.588,32.783 L62.474,32.783 L62.474,26.514 L59.81,26.514 L59.81,25.707 L66.24,25.707 L66.24,26.514 L63.588,26.514" id="Fill-8"></path>
                <path d="M67.509,25.707 L68.623,25.707 L68.623,32.783 L67.509,32.783 L67.509,25.707 Z" id="Fill-9"></path>
                <path d="M73.791,32.952 C71.647,32.952 70.175,31.683 70.175,29.25 C70.175,26.923 71.972,25.509 73.791,25.509 C75.738,25.509 77.405,26.651 77.405,29.25 C77.405,31.389 75.782,32.952 73.791,32.952 M73.779,26.274 C72.653,26.274 71.388,26.902 71.388,29.25 C71.388,31.493 72.567,32.186 73.791,32.186 C75.014,32.186 76.193,31.493 76.193,29.25 C76.193,26.975 74.981,26.274 73.779,26.274" id="Fill-10"></path>
                <path d="M84.448,32.898 L80.282,27.562 C80.162,27.405 80.01,27.206 79.935,27.017 L79.88,27.017 C79.88,27.164 79.892,27.457 79.892,27.73 L79.892,32.783 L78.96,32.783 L78.96,25.739 L80.151,25.655 L80.237,25.707 L83.744,30.32 C83.853,30.467 84.178,30.863 84.232,31.063 L84.275,31.063 C84.275,30.876 84.265,30.518 84.265,30.268 L84.265,25.707 L85.195,25.707 L85.195,32.898 L84.448,32.898" id="Fill-11"></path>
                <path d="M92.109,32.835 L92.023,32.785 L91.19,30.569 L88.256,30.569 L87.337,32.785 L87.25,32.835 L86.395,32.752 L89.502,25.519 L90.346,25.519 L93.214,32.752 L92.109,32.835 L92.109,32.835 Z M90.064,27.616 C89.944,27.311 89.827,26.995 89.804,26.714 L89.761,26.714 C89.729,26.995 89.577,27.354 89.458,27.636 L88.528,29.868 L90.919,29.868 L90.064,27.616 L90.064,27.616 Z" id="Fill-12"></path>
                <path d="M98.785,32.783 L94.413,32.783 L94.413,25.707 L95.527,25.707 L95.527,31.652 C95.527,31.923 95.669,31.986 95.862,31.986 L98.904,31.986 L98.785,32.783" id="Fill-13"></path>
                <path d="M107.397,32.836 L107.321,32.785 L104.345,29.114 L104.723,29.114 C105.655,29.114 106.542,28.748 106.542,27.71 C106.542,26.609 105.741,26.388 104.692,26.388 L104.041,26.388 L104.041,32.785 L102.928,32.785 L102.928,25.707 L105.091,25.707 C106.304,25.707 107.743,25.968 107.743,27.521 C107.743,28.6 106.91,29.25 105.99,29.48 L108.749,32.751 L107.397,32.836" id="Fill-14"></path>
                <path d="M114.369,32.783 L109.997,32.783 L109.997,25.707 L114.238,25.707 L114.238,26.503 L111.111,26.503 L111.111,28.601 L113.902,28.601 L113.902,29.408 L111.111,29.408 L111.111,31.652 C111.111,31.923 111.251,31.986 111.446,31.986 L114.488,31.986 L114.369,32.783" id="Fill-15"></path>
                <path d="M120.968,32.835 L120.88,32.785 L120.047,30.569 L117.113,30.569 L116.192,32.785 L116.108,32.835 L115.253,32.752 L118.358,25.519 L119.202,25.519 L122.071,32.752 L120.968,32.835 L120.968,32.835 Z M118.92,27.616 C118.803,27.311 118.682,26.995 118.66,26.714 L118.618,26.714 C118.585,26.995 118.435,27.354 118.315,27.636 L117.385,29.868 L119.775,29.868 L118.92,27.616 L118.92,27.616 Z" id="Fill-16"></path>
                <path d="M127.642,32.783 L123.27,32.783 L123.27,25.707 L124.385,25.707 L124.385,31.652 C124.385,31.923 124.525,31.986 124.72,31.986 L127.762,31.986 L127.642,32.783" id="Fill-17"></path>
                <path d="M136.158,32.783 L131.784,32.783 L131.784,25.707 L136.028,25.707 L136.028,26.503 L132.898,26.503 L132.898,28.601 L135.691,28.601 L135.691,29.408 L132.898,29.408 L132.898,31.652 C132.898,31.923 133.04,31.986 133.235,31.986 L136.275,31.986 L136.158,32.783" id="Fill-18"></path>
                <path d="M139.319,32.93 C138.615,32.93 137.943,32.773 137.402,32.49 L137.728,31.683 C138.073,31.892 138.712,32.134 139.384,32.134 C140.14,32.134 141.018,31.807 141.018,30.97 C141.018,30.246 140.378,29.902 139.772,29.648 L138.886,29.271 C138.149,28.957 137.489,28.454 137.489,27.531 C137.489,26.273 138.725,25.529 139.99,25.529 C140.672,25.529 141.234,25.686 141.742,25.948 L141.364,26.797 C141.05,26.576 140.466,26.325 139.87,26.325 C139.026,26.325 138.517,26.683 138.517,27.247 C138.517,27.825 139.006,28.086 139.666,28.381 L140.628,28.799 C141.353,29.115 142.079,29.722 142.079,30.645 C142.079,32.081 140.747,32.93 139.319,32.93" id="Fill-19"></path>
                <path d="M146.613,26.514 L146.613,32.783 L145.498,32.783 L145.498,26.514 L142.834,26.514 L142.834,25.707 L149.265,25.707 L149.265,26.514 L146.613,26.514" id="Fill-20"></path>
                <path d="M154.351,32.835 L154.264,32.785 L153.43,30.569 L150.498,30.569 L149.578,32.785 L149.491,32.835 L148.636,32.752 L151.742,25.519 L152.587,25.519 L155.454,32.752 L154.351,32.835 L154.351,32.835 Z M152.305,27.616 C152.186,27.311 152.067,26.995 152.046,26.714 L152.002,26.714 C151.971,26.995 151.818,27.354 151.699,27.636 L150.768,29.868 L153.161,29.868 L152.305,27.616 L152.305,27.616 Z" id="Fill-21"></path>
                <path d="M158.698,26.514 L158.698,32.783 L157.584,32.783 L157.584,26.514 L154.92,26.514 L154.92,25.707 L161.35,25.707 L161.35,26.514 L158.698,26.514" id="Fill-22"></path>
                <path d="M166.969,32.783 L162.597,32.783 L162.597,25.707 L166.841,25.707 L166.841,26.503 L163.712,26.503 L163.712,28.601 L166.503,28.601 L166.503,29.408 L163.712,29.408 L163.712,31.652 C163.712,31.923 163.852,31.986 164.047,31.986 L167.089,31.986 L166.969,32.783" id="Fill-23"></path>
                <path d="M21.079,6.703 C19.907,3.796 16.854,1.89 12.986,1.89 C7.058,1.89 3.366,5.672 3.366,10.922 C3.366,16.582 7.982,20.736 13.375,20.736 C16.179,20.736 19.623,19.893 22.036,16.111 L22.712,16.111 C22.248,17.517 21.293,19.457 20.44,20.675 C18.167,20.393 16.606,21.518 12.418,21.518 C5.212,21.518 0.031,17.331 0.031,11.548 C0.031,5.484 5.355,1.108 12.773,1.108 C17.245,1.108 19.163,2.359 20.262,2.359 C20.654,2.359 20.83,2.265 20.901,2.171 L21.434,2.171 L21.753,6.703 L21.079,6.703 L21.079,6.703 Z M30.228,11.735 L30.228,17.674 C30.228,19.707 30.69,20.425 33.068,20.425 L33.176,20.425 L33.176,21.018 L24.265,21.018 L24.265,20.425 L24.478,20.425 C26.573,20.425 27.282,19.925 27.282,18.143 L27.282,4.391 C27.282,2.764 26.678,2.295 24.727,2.171 L24.727,1.577 L33.176,1.577 L33.176,2.171 C30.655,2.171 30.228,2.764 30.228,5.172 L30.228,10.61 L44.143,10.61 L44.143,4.453 C44.143,2.796 43.539,2.171 41.338,2.171 L40.664,2.171 L40.664,1.577 L49.786,1.577 L49.786,2.171 C47.657,2.234 47.087,2.796 47.087,4.735 L47.087,17.706 C47.087,19.925 47.799,20.425 49.928,20.425 L50.282,20.425 L50.282,21.018 L40.237,21.018 L40.237,20.425 L41.338,20.425 C43.647,20.425 44.143,19.707 44.143,18.079 L44.143,11.735 L30.228,11.735 L30.228,11.735 Z M58.412,12.548 L58.412,18.018 C58.412,19.768 59.015,20.425 61.252,20.425 L62.422,20.425 L62.422,21.018 L52.591,21.018 L52.591,20.425 L53.088,20.425 C54.933,20.425 55.467,20.081 55.467,18.611 L55.467,3.828 C55.467,2.671 55.04,2.171 53.798,2.171 L52.023,2.171 L52.023,1.577 C53.016,1.547 54.757,1.452 56.496,1.39 C58.234,1.327 59.94,1.295 60.896,1.295 C68.315,1.295 70.019,4.423 70.019,6.829 C70.019,10.486 66.716,11.829 65.83,12.111 L70.053,17.736 C70.553,18.394 71.439,19.331 72.007,19.893 C72.503,20.331 72.965,20.582 73.993,20.863 L73.993,21.426 L73.534,21.426 C70.089,21.426 68.031,19.893 64.376,14.58 C63.736,13.642 63.311,13.174 62.884,12.736 C62.884,12.736 60.329,12.954 58.412,12.548 L58.412,12.548 Z M58.412,11.955 C58.872,12.047 59.656,12.202 60.329,12.202 C64.197,12.202 66.682,9.89 66.682,6.734 C66.682,4.297 65.583,1.89 60.861,1.89 C60.044,1.89 59.263,1.89 58.412,2.015 L58.412,11.955 L58.412,11.955 Z M84.536,21.018 L75.911,21.018 L75.911,20.425 C78.112,20.331 78.573,19.832 78.573,17.736 L78.573,4.423 C78.573,2.734 77.898,2.265 75.911,2.171 L75.911,1.577 L84.536,1.577 L84.536,2.171 C82.3,2.171 81.518,2.609 81.518,4.704 L81.518,17.957 C81.518,19.8 82.086,20.425 84.536,20.425 L84.536,21.018 L84.536,21.018 Z M88.361,16.268 C89.107,19.05 91.59,20.675 94.359,20.675 C96.737,20.675 99.257,19.457 99.257,16.987 C99.257,12.486 87.864,11.111 87.864,5.64 C87.864,3.046 90.562,1.108 94.184,1.108 C97.163,1.108 97.767,1.89 99.01,1.89 C99.292,1.89 99.434,1.828 99.647,1.577 L100.216,1.577 L100.82,5.547 L100.216,5.547 C99.222,3.295 96.951,1.859 94.5,1.859 C92.159,1.859 90.527,3.046 90.527,4.797 C90.527,9.234 101.92,10.423 101.92,16.174 C101.92,19.238 98.832,21.518 94.679,21.518 C92.726,21.518 90.244,20.675 89.745,20.675 C89.428,20.675 89.176,20.832 89.036,21.018 L88.433,21.018 L87.688,16.268 L88.361,16.268 L88.361,16.268 Z M115.584,18.143 C115.584,19.832 116.224,20.425 118.389,20.425 L119.703,20.425 L119.703,21.018 L108.522,21.018 L108.522,20.425 L109.833,20.425 C112.001,20.425 112.64,19.832 112.64,18.143 L112.64,2.702 L106.464,2.702 C105.043,2.702 104.405,3.422 103.872,6.172 L103.233,6.172 L103.801,1.108 L104.474,1.108 C104.512,1.295 104.652,1.422 104.864,1.484 C105.079,1.547 105.328,1.577 105.576,1.577 L122.65,1.577 C123.147,1.577 123.677,1.484 123.75,1.108 L124.424,1.108 L124.992,6.172 L124.353,6.172 C123.821,3.422 123.181,2.702 121.762,2.702 L115.584,2.702 L115.584,18.143 L115.584,18.143 Z M136.342,21.018 L127.717,21.018 L127.717,20.425 C129.918,20.331 130.379,19.832 130.379,17.736 L130.379,4.423 C130.379,2.734 129.705,2.265 127.717,2.171 L127.717,1.577 L136.342,1.577 L136.342,2.171 C134.106,2.171 133.326,2.609 133.326,4.704 L133.326,17.957 C133.326,19.8 133.893,20.425 136.342,20.425 L136.342,21.018 L136.342,21.018 Z M154.402,13.987 L153.726,13.987 C153.444,11.766 152.768,11.517 151.315,11.517 L145.313,11.517 L145.313,18.175 C145.313,19.611 145.917,19.893 147.23,19.893 L152.697,19.893 C155.181,19.893 155.926,19.05 156.814,16.361 L157.454,16.361 L156.884,21.018 L138.038,21.018 L138.038,20.425 L139.031,20.425 C141.871,20.425 142.368,19.738 142.368,17.862 L142.368,4.672 C142.368,2.921 141.907,2.171 139.528,2.171 L138.747,2.171 L138.747,1.577 L155.785,1.577 L156.068,5.921 L155.429,5.921 C154.969,3.266 154.081,2.702 152.803,2.702 L145.313,2.702 L145.313,10.391 L151.667,10.391 C152.945,10.391 153.548,9.861 153.726,8.047 L154.402,8.047 L154.402,13.987 L154.402,13.987 Z M159.866,7.016 C161.643,6.11 162.601,5.014 162.601,3.891 C162.601,3.516 162.461,3.235 162.104,3.235 C161.785,3.235 161.643,3.326 161.253,3.326 C160.328,3.326 159.654,2.734 159.654,1.921 C159.654,1.077 160.507,0.39 161.571,0.39 C162.992,0.39 164.055,1.484 164.055,2.984 C164.055,4.921 162.461,6.798 160.117,7.577 L159.866,7.016 L159.866,7.016 Z M166.924,16.268 C167.671,19.05 170.152,20.675 172.923,20.675 C175.299,20.675 177.822,19.457 177.822,16.987 C177.822,12.486 166.426,11.111 166.426,5.64 C166.426,3.046 169.124,1.108 172.745,1.108 C175.725,1.108 176.329,1.89 177.572,1.89 C177.857,1.89 177.998,1.828 178.213,1.577 L178.779,1.577 L179.383,5.547 L178.779,5.547 C177.786,3.295 175.513,1.859 173.064,1.859 C170.723,1.859 169.089,3.046 169.089,4.797 C169.089,9.234 180.484,10.423 180.484,16.174 C180.484,19.238 177.394,21.518 173.244,21.518 C171.289,21.518 168.805,20.675 168.308,20.675 C167.988,20.675 167.741,20.832 167.598,21.018 L166.994,21.018 L166.249,16.268 L166.924,16.268 L166.924,16.268 Z" id="Fill-24"></path>
                <path d="M14.57,25.707 L15.684,25.707 L15.684,32.783 L14.57,32.783 L14.57,25.707 Z" id="Fill-25"></path>
                <path d="M23.382,32.898 L19.215,27.562 C19.095,27.405 18.945,27.206 18.869,27.017 L18.814,27.017 C18.814,27.164 18.827,27.457 18.827,27.73 L18.827,32.783 L17.894,32.783 L17.894,25.739 L19.086,25.655 L19.172,25.707 L22.678,30.32 C22.787,30.467 23.111,30.863 23.166,31.063 L23.209,31.063 C23.209,30.876 23.198,30.518 23.198,30.268 L23.198,25.707 L24.129,25.707 L24.129,32.898 L23.382,32.898" id="Fill-26"></path>
                <path d="M29.154,26.514 L29.154,32.783 L28.039,32.783 L28.039,26.514 L25.377,26.514 L25.377,25.707 L31.806,25.707 L31.806,26.514 L29.154,26.514" id="Fill-27"></path>
                <path d="M37.425,32.783 L33.052,32.783 L33.052,25.707 L37.295,25.707 L37.295,26.503 L34.167,26.503 L34.167,28.601 L36.959,28.601 L36.959,29.408 L34.167,29.408 L34.167,31.652 C34.167,31.923 34.308,31.986 34.502,31.986 L37.543,31.986 L37.425,32.783" id="Fill-28"></path>
                <path d="M43.491,32.836 L43.415,32.785 L40.439,29.114 L40.817,29.114 C41.748,29.114 42.636,28.748 42.636,27.71 C42.636,26.609 41.835,26.388 40.785,26.388 L40.136,26.388 L40.136,32.785 L39.021,32.785 L39.021,25.707 L41.186,25.707 C42.397,25.707 43.837,25.968 43.837,27.521 C43.837,28.6 43.004,29.25 42.084,29.48 L44.844,32.751 L43.491,32.836" id="Fill-29"></path>
                <path d="M51.579,32.898 L47.411,27.562 C47.293,27.405 47.14,27.206 47.065,27.017 L47.01,27.017 C47.01,27.164 47.022,27.457 47.022,27.73 L47.022,32.783 L46.091,32.783 L46.091,25.739 L47.282,25.655 L47.369,25.707 L50.875,30.32 C50.983,30.467 51.308,30.863 51.362,31.063 L51.406,31.063 C51.406,30.876 51.393,30.518 51.393,30.268 L51.393,25.707 L52.326,25.707 L52.326,32.898 L51.579,32.898" id="Fill-30"></path>
                <path d="M59.24,32.835 L59.154,32.785 L58.321,30.569 L55.387,30.569 L54.467,32.785 L54.38,32.835 L53.526,32.752 L56.632,25.519 L57.477,25.519 L60.344,32.752 L59.24,32.835 L59.24,32.835 Z M57.195,27.616 C57.076,27.311 56.957,26.995 56.934,26.714 L56.892,26.714 C56.859,26.995 56.707,27.354 56.588,27.636 L55.659,29.868 L58.05,29.868 L57.195,27.616 L57.195,27.616 Z" id="Fill-31"></path>
                <path d="M63.588,26.514 L63.588,32.783 L62.474,32.783 L62.474,26.514 L59.81,26.514 L59.81,25.707 L66.24,25.707 L66.24,26.514 L63.588,26.514" id="Fill-32"></path>
                <path d="M67.509,25.707 L68.623,25.707 L68.623,32.783 L67.509,32.783 L67.509,25.707 Z" id="Fill-33"></path>
                <path d="M73.791,32.952 C71.647,32.952 70.175,31.683 70.175,29.25 C70.175,26.923 71.972,25.509 73.791,25.509 C75.738,25.509 77.405,26.651 77.405,29.25 C77.405,31.389 75.782,32.952 73.791,32.952 M73.779,26.274 C72.653,26.274 71.388,26.902 71.388,29.25 C71.388,31.493 72.567,32.186 73.791,32.186 C75.014,32.186 76.193,31.493 76.193,29.25 C76.193,26.975 74.981,26.274 73.779,26.274" id="Fill-34"></path>
                <path d="M84.448,32.898 L80.282,27.562 C80.162,27.405 80.01,27.206 79.935,27.017 L79.88,27.017 C79.88,27.164 79.892,27.457 79.892,27.73 L79.892,32.783 L78.96,32.783 L78.96,25.739 L80.151,25.655 L80.237,25.707 L83.744,30.32 C83.853,30.467 84.178,30.863 84.232,31.063 L84.275,31.063 C84.275,30.876 84.265,30.518 84.265,30.268 L84.265,25.707 L85.195,25.707 L85.195,32.898 L84.448,32.898" id="Fill-35"></path>
                <path d="M92.109,32.835 L92.023,32.785 L91.19,30.569 L88.256,30.569 L87.337,32.785 L87.25,32.835 L86.395,32.752 L89.502,25.519 L90.346,25.519 L93.214,32.752 L92.109,32.835 L92.109,32.835 Z M90.064,27.616 C89.944,27.311 89.827,26.995 89.804,26.714 L89.761,26.714 C89.729,26.995 89.577,27.354 89.458,27.636 L88.528,29.868 L90.919,29.868 L90.064,27.616 L90.064,27.616 Z" id="Fill-36"></path>
                <path d="M98.785,32.783 L94.413,32.783 L94.413,25.707 L95.527,25.707 L95.527,31.652 C95.527,31.923 95.669,31.986 95.862,31.986 L98.904,31.986 L98.785,32.783" id="Fill-37"></path>
                <path d="M107.397,32.836 L107.321,32.785 L104.345,29.114 L104.723,29.114 C105.655,29.114 106.542,28.748 106.542,27.71 C106.542,26.609 105.741,26.388 104.692,26.388 L104.041,26.388 L104.041,32.785 L102.928,32.785 L102.928,25.707 L105.091,25.707 C106.304,25.707 107.743,25.968 107.743,27.521 C107.743,28.6 106.91,29.25 105.99,29.48 L108.749,32.751 L107.397,32.836" id="Fill-38"></path>
                <path d="M114.369,32.783 L109.997,32.783 L109.997,25.707 L114.238,25.707 L114.238,26.503 L111.111,26.503 L111.111,28.601 L113.902,28.601 L113.902,29.408 L111.111,29.408 L111.111,31.652 C111.111,31.923 111.251,31.986 111.446,31.986 L114.488,31.986 L114.369,32.783" id="Fill-39"></path>
                <path d="M120.968,32.835 L120.88,32.785 L120.047,30.569 L117.113,30.569 L116.192,32.785 L116.108,32.835 L115.253,32.752 L118.358,25.519 L119.202,25.519 L122.071,32.752 L120.968,32.835 L120.968,32.835 Z M118.92,27.616 C118.803,27.311 118.682,26.995 118.66,26.714 L118.618,26.714 C118.585,26.995 118.435,27.354 118.315,27.636 L117.385,29.868 L119.775,29.868 L118.92,27.616 L118.92,27.616 Z" id="Fill-40"></path>
                <path d="M127.642,32.783 L123.27,32.783 L123.27,25.707 L124.385,25.707 L124.385,31.652 C124.385,31.923 124.525,31.986 124.72,31.986 L127.762,31.986 L127.642,32.783" id="Fill-41"></path>
                <path d="M136.158,32.783 L131.784,32.783 L131.784,25.707 L136.028,25.707 L136.028,26.503 L132.898,26.503 L132.898,28.601 L135.691,28.601 L135.691,29.408 L132.898,29.408 L132.898,31.652 C132.898,31.923 133.04,31.986 133.235,31.986 L136.275,31.986 L136.158,32.783" id="Fill-42"></path>
                <path d="M139.319,32.93 C138.615,32.93 137.943,32.773 137.402,32.49 L137.728,31.683 C138.073,31.892 138.712,32.134 139.384,32.134 C140.14,32.134 141.018,31.807 141.018,30.97 C141.018,30.246 140.378,29.902 139.772,29.648 L138.886,29.271 C138.149,28.957 137.489,28.454 137.489,27.531 C137.489,26.273 138.725,25.529 139.99,25.529 C140.672,25.529 141.234,25.686 141.742,25.948 L141.364,26.797 C141.05,26.576 140.466,26.325 139.87,26.325 C139.026,26.325 138.517,26.683 138.517,27.247 C138.517,27.825 139.006,28.086 139.666,28.381 L140.628,28.799 C141.353,29.115 142.079,29.722 142.079,30.645 C142.079,32.081 140.747,32.93 139.319,32.93" id="Fill-43"></path>
                <path d="M146.613,26.514 L146.613,32.783 L145.498,32.783 L145.498,26.514 L142.834,26.514 L142.834,25.707 L149.265,25.707 L149.265,26.514 L146.613,26.514" id="Fill-44"></path>
                <path d="M154.351,32.835 L154.264,32.785 L153.43,30.569 L150.498,30.569 L149.578,32.785 L149.491,32.835 L148.636,32.752 L151.742,25.519 L152.587,25.519 L155.454,32.752 L154.351,32.835 L154.351,32.835 Z M152.305,27.616 C152.186,27.311 152.067,26.995 152.046,26.714 L152.002,26.714 C151.971,26.995 151.818,27.354 151.699,27.636 L150.768,29.868 L153.161,29.868 L152.305,27.616 L152.305,27.616 Z" id="Fill-45"></path>
                <path d="M158.698,26.514 L158.698,32.783 L157.584,32.783 L157.584,26.514 L154.92,26.514 L154.92,25.707 L161.35,25.707 L161.35,26.514 L158.698,26.514" id="Fill-46"></path>
            </g>
        </g>
    </g>
</svg>