<?xml version="1.0" encoding="UTF-8" standalone="no"?>
<svg width="157px" height="57px" viewBox="0 0 157 57" version="1.1" xmlns="http://www.w3.org/2000/svg" xmlns:xlink="http://www.w3.org/1999/xlink" xmlns:sketch="http://www.bohemiancoding.com/sketch/ns">
    <!-- Generator: Sketch 3.5.1 (25234) - http://www.bohemiancoding.com/sketch -->
    <title>moreland</title>
    <desc>Created with Sketch.</desc>
    <defs></defs>
    <g id="Page-1" stroke="none" stroke-width="1" fill="none" fill-rule="evenodd" sketch:type="MSPage">
        <g id="ericmoreland_logooptions_final_-07" sketch:type="MSLayerGroup">
            <g id="moreland" sketch:type="MSShapeGroup">
                <path d="M0.353,42.201 L156.781,42.201 L156.781,56.002 L0.353,56.002 L0.353,42.201 Z" id="Stroke-47" stroke="#84BF41" stroke-width="0.165"></path>
                <path d="M2.388,2.82 L36.296,2.82 L36.296,36.399 L2.388,36.399 L2.388,2.82 Z" id="Fill-48" fill="#FFFFFF"></path>
                <path d="M79.555,13.778 C79.048,14.452 78.334,14.787 77.41,14.787 C76.472,14.787 75.749,14.452 75.24,13.778 C74.733,13.109 74.48,12.152 74.48,10.916 C74.48,9.689 74.733,8.741 75.24,8.072 C75.749,7.406 76.472,7.072 77.41,7.072 C78.341,7.072 79.057,7.406 79.562,8.072 C80.064,8.741 80.318,9.689 80.318,10.916 C80.318,12.152 80.063,13.109 79.555,13.778 L79.555,13.778 Z M77.412,4.268 C75.445,4.268 73.898,4.862 72.773,6.044 C71.649,7.229 71.085,8.853 71.085,10.923 C71.085,13 71.649,14.632 72.773,15.814 C73.898,16.997 75.445,17.59 77.412,17.59 C79.37,17.59 80.914,16.997 82.044,15.814 C83.173,14.632 83.738,13 83.738,10.923 C83.738,8.853 83.173,7.229 82.044,6.044 C80.914,4.862 79.37,4.268 77.412,4.268 L77.412,4.268 Z" id="Fill-49" fill="#84BF41"></path>
                <path d="M97.854,9.642 C97.921,8.806 98.167,8.163 98.586,7.715 C99.006,7.269 99.581,7.047 100.309,7.047 C101.095,7.047 101.699,7.267 102.117,7.708 C102.534,8.152 102.76,8.799 102.791,9.642 L97.854,9.642 L97.854,9.642 Z M100.242,4.268 C98.434,4.268 97.009,4.855 95.969,6.033 C94.927,7.21 94.406,8.816 94.406,10.854 C94.406,12.923 94.936,14.563 95.992,15.774 C97.049,16.985 98.477,17.59 100.285,17.59 C101.753,17.59 102.999,17.216 104.02,16.477 C105.04,15.734 105.719,14.708 106.057,13.397 L102.711,13.397 C102.499,13.863 102.207,14.206 101.842,14.429 C101.474,14.651 101.006,14.761 100.431,14.761 C99.624,14.761 99.002,14.515 98.57,14.022 C98.137,13.528 97.899,12.798 97.854,11.828 L106.2,11.828 C106.218,11.723 106.226,11.608 106.231,11.491 C106.236,11.371 106.237,11.192 106.237,10.958 C106.237,8.816 105.715,7.165 104.677,6.006 C103.635,4.848 102.156,4.268 100.242,4.268 L100.242,4.268 Z" id="Fill-50" fill="#84BF41"></path>
                <path d="M79.258,33.372 C78.84,33.885 78.257,34.142 77.507,34.142 C76.764,34.142 76.187,33.885 75.772,33.372 C75.359,32.859 75.153,32.142 75.153,31.214 C75.153,30.286 75.359,29.567 75.772,29.056 C76.187,28.545 76.764,28.291 77.507,28.291 C78.257,28.291 78.84,28.547 79.258,29.061 C79.676,29.571 79.885,30.289 79.885,31.214 C79.885,32.142 79.676,32.859 79.258,33.372 L79.258,33.372 Z M77.507,26.772 C76.242,26.772 75.24,27.172 74.495,27.976 C73.75,28.772 73.379,29.852 73.379,31.214 C73.379,32.577 73.75,33.655 74.495,34.456 C75.24,35.259 76.242,35.656 77.507,35.656 C78.769,35.656 79.775,35.259 80.524,34.456 C81.271,33.655 81.647,32.577 81.647,31.214 C81.647,29.857 81.271,28.777 80.524,27.976 C79.775,27.174 78.769,26.772 77.507,26.772 L77.507,26.772 Z" id="Fill-51" fill="#84BF41"></path>
                <path d="M93.046,4.378 C92.974,4.372 92.872,4.372 92.742,4.372 C91.936,4.372 91.239,4.571 90.658,4.971 C90.073,5.372 89.565,6 89.126,6.853 L89.126,4.731 L86.024,4.731 L86.024,17.176 L89.368,17.176 L89.368,10.586 C89.368,9.653 89.598,8.95 90.059,8.477 C90.519,8.004 91.206,7.765 92.12,7.765 L93.238,7.765 L93.225,4.396 C93.18,4.388 93.119,4.384 93.046,4.378" id="Fill-52" fill="#84BF41"></path>
                <path d="M90.754,30.609 C90.547,30.803 90.214,30.898 89.759,30.898 L88.068,30.898 L88.068,28.457 L89.852,28.457 C90.254,28.457 90.556,28.561 90.761,28.766 C90.965,28.974 91.065,29.279 91.065,29.679 C91.065,30.11 90.963,30.418 90.754,30.609 L90.754,30.609 Z M90.087,26.992 L86.322,26.992 L86.322,35.426 L88.059,35.426 L88.059,32.433 L90.204,32.433 C91.032,32.433 91.672,32.194 92.119,31.723 C92.566,31.252 92.79,30.58 92.79,29.708 C92.79,28.82 92.561,28.143 92.103,27.683 C91.647,27.223 90.975,26.992 90.087,26.992 L90.087,26.992 Z" id="Fill-53" fill="#84BF41"></path>
                <path d="M66.828,30.413 C66.62,30.593 66.289,30.68 65.842,30.68 L63.8,30.68 L63.8,28.444 L65.924,28.444 C66.328,28.444 66.633,28.538 66.838,28.728 C67.042,28.917 67.143,29.194 67.143,29.561 C67.143,29.951 67.039,30.234 66.828,30.413 L66.828,30.413 Z M68.709,34.253 L68.709,34.22 L68.673,33.226 C68.65,32.657 68.563,32.244 68.406,31.977 C68.253,31.707 67.992,31.509 67.626,31.38 C68.029,31.255 68.341,31.02 68.556,30.676 C68.771,30.331 68.878,29.902 68.878,29.385 C68.878,28.577 68.658,27.976 68.212,27.583 C67.767,27.188 67.082,26.992 66.159,26.992 L62.064,26.992 L62.064,35.426 L63.8,35.426 L63.8,32.149 L65.643,32.149 C66.106,32.149 66.426,32.238 66.603,32.423 C66.783,32.606 66.88,32.96 66.898,33.481 L66.923,34.369 C66.93,34.61 66.952,34.817 66.986,34.988 C67.02,35.163 67.067,35.31 67.132,35.426 L69.033,35.426 L69.033,35.168 C68.828,35.061 68.72,34.757 68.709,34.253 L68.709,34.253 Z" id="Fill-54" fill="#84BF41"></path>
                <path d="M108.553,0.308 L111.897,0.308 L111.897,17.176 L108.553,17.176 L108.553,0.308 Z" id="Fill-55" fill="#84BF41"></path>
                <path d="M63.714,7.252 C64.294,7.252 64.745,7.418 65.069,7.751 C65.394,8.084 65.556,8.55 65.556,9.154 L65.556,17.176 L68.849,17.176 L68.849,8.466 C68.849,7.201 68.482,6.2 67.748,5.471 C67.016,4.738 66.022,4.372 64.77,4.372 C64.034,4.372 63.371,4.525 62.775,4.828 C62.178,5.134 61.665,5.593 61.228,6.202 C60.814,5.57 60.327,5.105 59.768,4.813 C59.208,4.521 58.533,4.372 57.744,4.372 C57.045,4.372 56.409,4.516 55.834,4.807 C55.259,5.095 54.738,5.528 54.27,6.101 L54.27,4.731 L51.104,4.731 L51.104,17.176 L54.396,17.176 L54.396,9.647 C54.396,8.907 54.585,8.322 54.964,7.895 C55.346,7.466 55.86,7.252 56.512,7.252 C57.088,7.252 57.535,7.42 57.853,7.756 C58.173,8.092 58.331,8.565 58.331,9.178 L58.331,17.176 L61.596,17.176 L61.596,9.624 C61.596,8.892 61.786,8.311 62.169,7.888 C62.55,7.463 63.065,7.252 63.714,7.252" id="Fill-56" fill="#84BF41"></path>
                <path d="M55.361,30.609 C55.154,30.803 54.822,30.898 54.365,30.898 L52.676,30.898 L52.676,28.457 L54.457,28.457 C54.86,28.457 55.165,28.561 55.369,28.766 C55.572,28.974 55.675,29.279 55.675,29.679 C55.675,30.11 55.569,30.418 55.361,30.609 L55.361,30.609 Z M54.692,26.992 L50.928,26.992 L50.928,35.426 L52.665,35.426 L52.665,32.433 L54.81,32.433 C55.638,32.433 56.279,32.194 56.724,31.723 C57.174,31.252 57.397,30.58 57.397,29.708 C57.397,28.82 57.169,28.143 56.71,27.683 C56.254,27.223 55.581,26.992 54.692,26.992 L54.692,26.992 Z" id="Fill-57" fill="#84BF41"></path>
                <path d="M99.181,31.698 L103.224,31.698 L103.224,30.256 L99.181,30.256 L99.181,28.457 L103.602,28.457 L103.602,26.992 L97.458,26.992 L97.458,35.426 L103.808,35.426 L103.808,33.871 L99.181,33.871 L99.181,31.698" id="Fill-58" fill="#84BF41"></path>
                <path d="M146.085,13.741 C145.609,13.08 145.375,12.12 145.375,10.857 C145.375,9.711 145.616,8.811 146.099,8.156 C146.579,7.502 147.237,7.173 148.073,7.173 C148.962,7.173 149.65,7.493 150.14,8.131 C150.629,8.774 150.879,9.68 150.879,10.857 C150.879,12.127 150.643,13.089 150.177,13.75 C149.709,14.407 149.03,14.735 148.144,14.735 C147.247,14.735 146.561,14.405 146.085,13.741 L146.085,13.741 Z M150.945,15.49 L150.945,17.176 L154.117,17.176 L154.117,0.308 L150.879,0.308 L150.879,6.261 C150.463,5.622 149.939,5.133 149.308,4.799 C148.678,4.462 147.958,4.293 147.154,4.293 C145.644,4.293 144.415,4.914 143.461,6.155 C142.506,7.397 142.031,9.007 142.031,10.993 C142.031,12.964 142.506,14.553 143.461,15.769 C144.415,16.983 145.661,17.59 147.201,17.59 C148.013,17.59 148.719,17.421 149.319,17.083 C149.92,16.743 150.463,16.214 150.945,15.49 L150.945,15.49 Z" id="Fill-59" fill="#84BF41"></path>
                <path d="M139.019,31.698 L143.062,31.698 L143.062,30.256 L139.019,30.256 L139.019,28.457 L143.444,28.457 L143.444,26.992 L137.3,26.992 L137.3,35.426 L143.65,35.426 L143.65,33.871 L139.019,33.871 L139.019,31.698" id="Fill-60" fill="#84BF41"></path>
                <path d="M130.444,26.992 L132.179,26.992 L132.179,35.427 L130.444,35.427 L130.444,26.992 Z" id="Fill-61" fill="#84BF41"></path>
                <path d="M139.765,17.176 L139.765,8.696 C139.765,7.26 139.423,6.183 138.737,5.471 C138.054,4.755 137.023,4.397 135.647,4.397 C134.868,4.397 134.161,4.55 133.529,4.849 C132.894,5.152 132.342,5.608 131.881,6.211 L131.881,4.731 L128.604,4.731 L128.604,17.176 L131.946,17.176 L131.946,9.797 C131.946,8.986 132.175,8.348 132.634,7.878 C133.092,7.41 133.714,7.173 134.499,7.173 C135.178,7.173 135.668,7.365 135.971,7.746 C136.27,8.129 136.42,8.767 136.42,9.659 L136.42,17.176 L139.765,17.176" id="Fill-62" fill="#84BF41"></path>
                <path d="M153.712,31.007 C153.521,30.898 153.297,30.803 153.038,30.716 C152.779,30.627 152.343,30.506 151.724,30.348 C151.579,30.315 151.378,30.267 151.12,30.205 C150.159,29.985 149.681,29.649 149.681,29.2 C149.681,28.873 149.802,28.621 150.051,28.44 C150.294,28.264 150.644,28.175 151.101,28.175 C151.625,28.175 152.028,28.282 152.309,28.498 C152.592,28.711 152.748,29.026 152.779,29.435 L154.45,29.435 C154.42,28.587 154.126,27.928 153.571,27.462 C153.014,26.993 152.244,26.76 151.256,26.76 C150.2,26.76 149.391,26.98 148.833,27.414 C148.275,27.853 147.995,28.482 147.995,29.302 C147.995,29.742 148.075,30.124 148.232,30.445 C148.386,30.77 148.616,31.025 148.913,31.214 C149.251,31.429 149.813,31.622 150.602,31.793 C150.683,31.814 150.742,31.826 150.779,31.835 L150.83,31.844 C152.302,32.179 153.038,32.606 153.038,33.116 C153.038,33.467 152.907,33.731 152.654,33.911 C152.396,34.09 152.019,34.177 151.513,34.177 C150.921,34.177 150.47,34.067 150.159,33.846 C149.844,33.621 149.655,33.28 149.59,32.815 L147.868,32.815 C147.915,33.726 148.237,34.425 148.846,34.919 C149.447,35.411 150.283,35.656 151.347,35.656 C152.426,35.656 153.265,35.417 153.858,34.935 C154.45,34.453 154.746,33.772 154.746,32.894 C154.746,32.457 154.66,32.08 154.488,31.765 C154.315,31.449 154.056,31.199 153.712,31.007" id="Fill-63" fill="#84BF41"></path>
                <path d="M119.357,28.496 L121.862,28.496 L121.862,35.426 L123.599,35.426 L123.599,28.496 L126.09,28.496 L126.09,26.992 L119.357,26.992 L119.357,28.496" id="Fill-64" fill="#84BF41"></path>
                <path d="M122.458,12.22 C122.458,13.101 122.201,13.795 121.685,14.305 C121.169,14.815 120.46,15.07 119.558,15.07 C119.053,15.07 118.653,14.935 118.354,14.661 C118.057,14.393 117.909,14.023 117.909,13.564 C117.909,13.119 118.024,12.769 118.256,12.518 C118.489,12.266 118.9,12.054 119.489,11.885 C119.512,11.878 119.877,11.798 120.585,11.645 C121.292,11.492 121.913,11.291 122.458,11.037 L122.458,12.22 L122.458,12.22 Z M125.834,16.039 C125.727,15.781 125.673,15.394 125.673,14.875 L125.673,7.779 C125.673,6.644 125.206,5.775 124.277,5.171 C123.346,4.569 122.007,4.268 120.261,4.268 C118.666,4.268 117.414,4.633 116.511,5.361 C115.608,6.089 115.154,7.088 115.154,8.361 L115.154,8.587 L118.266,8.587 L118.266,8.406 C118.266,7.911 118.449,7.532 118.806,7.266 C119.169,7 119.687,6.865 120.362,6.865 C121.099,6.865 121.625,6.975 121.94,7.193 C122.253,7.41 122.411,7.77 122.411,8.273 C122.411,8.907 121.701,9.314 120.282,9.496 C119.721,9.566 119.27,9.627 118.922,9.68 C117.426,9.909 116.346,10.334 115.696,10.954 C115.044,11.572 114.718,12.47 114.718,13.649 C114.718,14.917 115.046,15.895 115.698,16.583 C116.353,17.271 117.282,17.615 118.492,17.615 C119.391,17.615 120.182,17.447 120.865,17.108 C121.545,16.77 122.093,16.278 122.518,15.631 C122.525,15.929 122.559,16.21 122.62,16.465 C122.681,16.728 122.771,16.965 122.884,17.176 L126.368,17.176 L126.368,16.619 C126.117,16.488 125.938,16.293 125.834,16.039 L125.834,16.039 Z" id="Fill-65" fill="#84BF41"></path>
                <path d="M113.192,30.413 C112.981,30.593 112.65,30.68 112.204,30.68 L110.161,30.68 L110.161,28.444 L112.284,28.444 C112.692,28.444 112.995,28.538 113.201,28.728 C113.403,28.917 113.504,29.194 113.504,29.561 C113.504,29.951 113.401,30.234 113.192,30.413 L113.192,30.413 Z M115.069,34.253 L115.069,34.22 L115.036,33.226 C115.014,32.657 114.923,32.244 114.768,31.977 C114.614,31.707 114.353,31.509 113.986,31.38 C114.39,31.255 114.701,31.02 114.919,30.676 C115.132,30.331 115.243,29.902 115.243,29.385 C115.243,28.577 115.019,27.976 114.574,27.583 C114.129,27.188 113.445,26.992 112.521,26.992 L108.426,26.992 L108.426,35.426 L110.161,35.426 L110.161,32.149 L112.003,32.149 C112.468,32.149 112.788,32.238 112.963,32.423 C113.143,32.606 113.241,32.96 113.261,33.481 L113.287,34.369 C113.291,34.61 113.314,34.817 113.349,34.988 C113.38,35.163 113.43,35.31 113.494,35.426 L115.397,35.426 L115.397,35.168 C115.189,35.061 115.081,34.757 115.069,34.253 L115.069,34.253 Z" id="Fill-66" fill="#84BF41"></path>
                <path d="M2.407,1.019 L2.407,7.418 L6.54,7.418 L6.54,9.698 C7.307,8.758 8.16,8.05 9.103,7.573 C10.044,7.097 11.086,6.859 12.23,6.859 C13.524,6.859 14.628,7.101 15.545,7.583 C16.463,8.066 17.26,8.828 17.939,9.869 C18.654,8.866 19.501,8.113 20.481,7.612 C21.458,7.11 22.551,6.859 23.757,6.859 C25.813,6.859 27.445,7.463 28.65,8.67 C29.853,9.877 30.458,11.525 30.458,13.613 L30.458,27.929 L25.06,27.929 L25.06,14.743 C25.06,13.752 24.792,12.982 24.258,12.436 C23.724,11.89 22.981,11.617 22.028,11.617 C20.959,11.617 20.111,11.965 19.485,12.662 C18.857,13.359 18.543,14.311 18.543,15.516 L18.543,27.929 L13.184,27.929 L13.184,14.782 C13.184,13.776 12.924,12.998 12.403,12.446 C11.883,11.893 11.152,11.617 10.211,11.617 C9.144,11.617 8.3,11.968 7.678,12.671 C7.057,13.375 6.748,14.335 6.748,15.553 L6.748,27.929 L2.407,27.929 L2.407,36.676 L39.591,36.676 L39.591,1.019 L2.407,1.019" id="Fill-67" fill="#84BF41"></path>
                <path d="M7.743,47.454 C7.743,47.419 7.767,47.397 7.801,47.397 L10.16,47.397 C10.195,47.397 10.218,47.419 10.218,47.454 L10.218,47.817 C10.218,47.852 10.195,47.875 10.16,47.875 L8.291,47.875 C8.269,47.875 8.257,47.887 8.257,47.909 L8.257,49.064 C8.257,49.086 8.269,49.098 8.291,49.098 L9.877,49.098 C9.912,49.098 9.936,49.121 9.936,49.155 L9.936,49.519 C9.936,49.554 9.912,49.576 9.877,49.576 L8.291,49.576 C8.269,49.576 8.257,49.588 8.257,49.611 L8.257,50.805 C8.257,50.828 8.269,50.84 8.291,50.84 L10.16,50.84 C10.195,50.84 10.218,50.862 10.218,50.897 L10.218,51.261 C10.218,51.295 10.195,51.318 10.16,51.318 L7.801,51.318 C7.767,51.318 7.743,51.295 7.743,51.261 L7.743,47.454" id="Fill-68" fill="#84BF41"></path>
                <path d="M14.561,48.526 C14.561,48.117 14.29,47.875 13.834,47.875 L12.917,47.875 C12.895,47.875 12.883,47.887 12.883,47.909 L12.883,49.144 C12.883,49.167 12.895,49.179 12.917,49.179 L13.834,49.179 C14.29,49.179 14.561,48.936 14.561,48.526 L14.561,48.526 Z M14.642,51.318 C14.602,51.318 14.584,51.301 14.567,51.261 L13.782,49.657 L12.917,49.657 C12.895,49.657 12.883,49.669 12.883,49.691 L12.883,51.261 C12.883,51.295 12.859,51.318 12.825,51.318 L12.427,51.318 C12.393,51.318 12.369,51.295 12.369,51.261 L12.369,47.454 C12.369,47.419 12.393,47.397 12.427,47.397 L13.846,47.397 C14.578,47.397 15.074,47.846 15.074,48.526 C15.074,49.058 14.775,49.443 14.302,49.594 L15.138,51.249 C15.161,51.284 15.144,51.318 15.104,51.318 L14.642,51.318 L14.642,51.318 Z" id="Fill-69" fill="#84BF41"></path>
                <path d="M17.307,47.454 C17.307,47.419 17.33,47.397 17.364,47.397 L17.763,47.397 C17.797,47.397 17.82,47.419 17.82,47.454 L17.82,51.261 C17.82,51.295 17.797,51.318 17.763,51.318 L17.364,51.318 C17.33,51.318 17.307,51.295 17.307,51.261 L17.307,47.454" id="Fill-70" fill="#84BF41"></path>
                <path d="M20.031,49.357 C20.031,48.705 20.061,48.481 20.136,48.256 C20.332,47.639 20.799,47.333 21.44,47.333 C22.022,47.333 22.472,47.621 22.696,48.123 C22.708,48.151 22.702,48.181 22.673,48.198 L22.327,48.365 C22.293,48.383 22.258,48.365 22.246,48.336 C22.091,48.03 21.849,47.811 21.44,47.811 C21.012,47.811 20.753,48.019 20.626,48.389 C20.574,48.55 20.551,48.74 20.551,49.357 C20.551,49.975 20.574,50.165 20.626,50.326 C20.753,50.695 21.012,50.903 21.44,50.903 C21.849,50.903 22.091,50.684 22.246,50.378 C22.258,50.35 22.293,50.332 22.327,50.35 L22.673,50.517 C22.702,50.534 22.708,50.562 22.696,50.592 C22.472,51.094 22.022,51.382 21.44,51.382 C20.799,51.382 20.332,51.076 20.136,50.459 C20.061,50.234 20.031,50.009 20.031,49.357" id="Fill-71" fill="#84BF41"></path>
                <path d="M27.578,47.454 C27.578,47.419 27.602,47.397 27.636,47.397 L28.011,47.397 C28.057,47.397 28.086,47.413 28.104,47.454 L29.275,50.096 L29.291,50.096 L30.44,47.454 C30.456,47.413 30.486,47.397 30.531,47.397 L30.906,47.397 C30.941,47.397 30.964,47.419 30.964,47.454 L30.964,51.261 C30.964,51.295 30.941,51.318 30.906,51.318 L30.543,51.318 C30.508,51.318 30.486,51.295 30.486,51.261 L30.486,48.532 L30.468,48.532 L29.493,50.689 C29.47,50.741 29.441,50.759 29.39,50.759 L29.158,50.759 C29.101,50.759 29.072,50.741 29.049,50.689 L28.074,48.532 L28.057,48.532 L28.057,51.261 C28.057,51.295 28.034,51.318 27.999,51.318 L27.636,51.318 C27.602,51.318 27.578,51.295 27.578,51.261 L27.578,47.454" id="Fill-72" fill="#84BF41"></path>
                <path d="M35.445,50.32 C35.491,50.177 35.531,49.923 35.531,49.357 C35.531,48.792 35.491,48.538 35.445,48.394 C35.323,48.019 35.047,47.811 34.609,47.811 C34.176,47.811 33.9,48.019 33.778,48.394 C33.732,48.538 33.692,48.792 33.692,49.357 C33.692,49.923 33.732,50.177 33.778,50.32 C33.9,50.695 34.176,50.903 34.609,50.903 C35.047,50.903 35.323,50.695 35.445,50.32 L35.445,50.32 Z M33.277,50.465 C33.201,50.24 33.172,50.003 33.172,49.357 C33.172,48.711 33.201,48.475 33.277,48.25 C33.478,47.644 33.951,47.333 34.609,47.333 C35.272,47.333 35.745,47.644 35.946,48.25 C36.022,48.475 36.051,48.711 36.051,49.357 C36.051,50.003 36.022,50.24 35.946,50.465 C35.745,51.07 35.272,51.382 34.609,51.382 C33.951,51.382 33.478,51.07 33.277,50.465 L33.277,50.465 Z" id="Fill-73" fill="#84BF41"></path>
                <path d="M40.451,48.526 C40.451,48.117 40.18,47.875 39.724,47.875 L38.807,47.875 C38.784,47.875 38.773,47.887 38.773,47.909 L38.773,49.144 C38.773,49.167 38.784,49.179 38.807,49.179 L39.724,49.179 C40.18,49.179 40.451,48.936 40.451,48.526 L40.451,48.526 Z M40.531,51.318 C40.491,51.318 40.474,51.301 40.456,51.261 L39.672,49.657 L38.807,49.657 C38.784,49.657 38.773,49.669 38.773,49.691 L38.773,51.261 C38.773,51.295 38.749,51.318 38.715,51.318 L38.316,51.318 C38.282,51.318 38.259,51.295 38.259,51.261 L38.259,47.454 C38.259,47.419 38.282,47.397 38.316,47.397 L39.736,47.397 C40.468,47.397 40.964,47.846 40.964,48.526 C40.964,49.058 40.664,49.443 40.191,49.594 L41.028,51.249 C41.051,51.284 41.033,51.318 40.993,51.318 L40.531,51.318 L40.531,51.318 Z" id="Fill-74" fill="#84BF41"></path>
                <path d="M43.196,47.454 C43.196,47.419 43.22,47.397 43.254,47.397 L45.613,47.397 C45.648,47.397 45.671,47.419 45.671,47.454 L45.671,47.817 C45.671,47.852 45.648,47.875 45.613,47.875 L43.744,47.875 C43.722,47.875 43.71,47.887 43.71,47.909 L43.71,49.064 C43.71,49.086 43.722,49.098 43.744,49.098 L45.33,49.098 C45.365,49.098 45.389,49.121 45.389,49.155 L45.389,49.519 C45.389,49.554 45.365,49.576 45.33,49.576 L43.744,49.576 C43.722,49.576 43.71,49.588 43.71,49.611 L43.71,50.805 C43.71,50.828 43.722,50.84 43.744,50.84 L45.613,50.84 C45.648,50.84 45.671,50.862 45.671,50.897 L45.671,51.261 C45.671,51.295 45.648,51.318 45.613,51.318 L43.254,51.318 C43.22,51.318 43.196,51.295 43.196,51.261 L43.196,47.454" id="Fill-75" fill="#84BF41"></path>
                <path d="M47.822,47.454 C47.822,47.419 47.846,47.397 47.88,47.397 L48.278,47.397 C48.313,47.397 48.336,47.419 48.336,47.454 L48.336,50.805 C48.336,50.828 48.348,50.84 48.37,50.84 L50.239,50.84 C50.274,50.84 50.297,50.862 50.297,50.897 L50.297,51.261 C50.297,51.295 50.274,51.318 50.239,51.318 L47.88,51.318 C47.846,51.318 47.822,51.295 47.822,51.261 L47.822,47.454" id="Fill-76" fill="#84BF41"></path>
                <path d="M54.196,49.935 L53.579,48.151 L53.568,48.151 L52.945,49.935 L54.196,49.935 L54.196,49.935 Z M53.32,47.454 C53.331,47.419 53.349,47.397 53.389,47.397 L53.764,47.397 C53.805,47.397 53.827,47.419 53.839,47.454 L55.183,51.261 C55.195,51.295 55.177,51.318 55.143,51.318 L54.739,51.318 C54.698,51.318 54.676,51.301 54.664,51.261 L54.364,50.407 L52.777,50.407 L52.478,51.261 C52.461,51.301 52.438,51.318 52.403,51.318 L51.999,51.318 C51.965,51.318 51.947,51.295 51.959,51.261 L53.32,47.454 L53.32,47.454 Z" id="Fill-77" fill="#84BF41"></path>
                <path d="M57.185,47.454 C57.185,47.419 57.208,47.397 57.242,47.397 L57.612,47.397 C57.657,47.397 57.687,47.408 57.71,47.454 L59.487,50.395 L59.509,50.395 L59.509,47.454 C59.509,47.419 59.532,47.397 59.567,47.397 L59.93,47.397 C59.965,47.397 59.988,47.419 59.988,47.454 L59.988,51.261 C59.988,51.295 59.965,51.318 59.93,51.318 L59.561,51.318 C59.521,51.318 59.487,51.307 59.463,51.261 L57.681,48.331 L57.663,48.331 L57.663,51.261 C57.663,51.295 57.641,51.318 57.606,51.318 L57.242,51.318 C57.208,51.318 57.185,51.295 57.185,51.261 L57.185,47.454" id="Fill-78" fill="#84BF41"></path>
                <path d="M62.883,50.84 L63.604,50.84 C64.077,50.84 64.371,50.684 64.498,50.304 C64.55,50.159 64.579,49.969 64.579,49.357 C64.579,48.746 64.55,48.556 64.498,48.411 C64.371,48.03 64.077,47.875 63.604,47.875 L62.883,47.875 C62.86,47.875 62.849,47.887 62.849,47.909 L62.849,50.805 C62.849,50.828 62.86,50.84 62.883,50.84 L62.883,50.84 Z M62.335,47.454 C62.335,47.419 62.359,47.397 62.393,47.397 L63.714,47.397 C64.377,47.397 64.816,47.679 64.994,48.232 C65.064,48.446 65.098,48.659 65.098,49.357 C65.098,50.056 65.064,50.269 64.994,50.482 C64.816,51.036 64.377,51.318 63.714,51.318 L62.393,51.318 C62.359,51.318 62.335,51.295 62.335,51.261 L62.335,47.454 L62.335,47.454 Z" id="Fill-79" fill="#84BF41"></path>
                <path d="M70.129,49.542 C70.129,49.109 70.435,48.804 70.862,48.804 C71.282,48.804 71.594,49.109 71.594,49.542 C71.594,49.975 71.282,50.28 70.862,50.28 C70.435,50.28 70.129,49.975 70.129,49.542" id="Fill-80" fill="#84BF41"></path>
                <path d="M78.005,50.852 L78.922,50.852 C79.39,50.852 79.644,50.598 79.644,50.205 C79.644,49.818 79.39,49.56 78.922,49.56 L78.005,49.56 C77.983,49.56 77.971,49.57 77.971,49.594 L77.971,50.816 C77.971,50.84 77.983,50.852 78.005,50.852 L78.005,50.852 Z M78.894,49.092 C79.326,49.092 79.58,48.844 79.58,48.481 C79.58,48.106 79.326,47.863 78.894,47.863 L78.005,47.863 C77.983,47.863 77.971,47.875 77.971,47.898 L77.971,49.058 C77.971,49.08 77.983,49.092 78.005,49.092 L78.894,49.092 L78.894,49.092 Z M77.457,47.454 C77.457,47.419 77.481,47.397 77.515,47.397 L78.905,47.397 C79.695,47.397 80.087,47.8 80.087,48.429 C80.087,48.885 79.868,49.161 79.563,49.282 L79.563,49.294 C79.828,49.369 80.156,49.675 80.156,50.199 C80.156,50.932 79.695,51.318 78.876,51.318 L77.515,51.318 C77.481,51.318 77.457,51.295 77.457,51.261 L77.457,47.454 L77.457,47.454 Z" id="Fill-81" fill="#84BF41"></path>
                <path d="M84.512,48.526 C84.512,48.117 84.24,47.875 83.784,47.875 L82.867,47.875 C82.845,47.875 82.833,47.887 82.833,47.909 L82.833,49.144 C82.833,49.167 82.845,49.179 82.867,49.179 L83.784,49.179 C84.24,49.179 84.512,48.936 84.512,48.526 L84.512,48.526 Z M84.592,51.318 C84.552,51.318 84.534,51.301 84.517,51.261 L83.733,49.657 L82.867,49.657 C82.845,49.657 82.833,49.669 82.833,49.691 L82.833,51.261 C82.833,51.295 82.81,51.318 82.776,51.318 L82.377,51.318 C82.343,51.318 82.32,51.295 82.32,51.261 L82.32,47.454 C82.32,47.419 82.343,47.397 82.377,47.397 L83.796,47.397 C84.528,47.397 85.025,47.846 85.025,48.526 C85.025,49.058 84.725,49.443 84.252,49.594 L85.088,51.249 C85.111,51.284 85.094,51.318 85.054,51.318 L84.592,51.318 L84.592,51.318 Z" id="Fill-82" fill="#84BF41"></path>
                <path d="M89.391,50.32 C89.438,50.177 89.478,49.923 89.478,49.357 C89.478,48.792 89.438,48.538 89.391,48.394 C89.27,48.019 88.993,47.811 88.555,47.811 C88.122,47.811 87.846,48.019 87.725,48.394 C87.678,48.538 87.638,48.792 87.638,49.357 C87.638,49.923 87.678,50.177 87.725,50.32 C87.846,50.695 88.122,50.903 88.555,50.903 C88.993,50.903 89.27,50.695 89.391,50.32 L89.391,50.32 Z M87.223,50.465 C87.148,50.24 87.118,50.003 87.118,49.357 C87.118,48.711 87.148,48.475 87.223,48.25 C87.424,47.644 87.898,47.333 88.555,47.333 C89.218,47.333 89.692,47.644 89.893,48.25 C89.968,48.475 89.997,48.711 89.997,49.357 C89.997,50.003 89.968,50.24 89.893,50.465 C89.692,51.07 89.218,51.382 88.555,51.382 C87.898,51.382 87.424,51.07 87.223,50.465 L87.223,50.465 Z" id="Fill-83" fill="#84BF41"></path>
                <path d="M92.205,47.454 C92.205,47.419 92.229,47.397 92.263,47.397 L92.661,47.397 C92.695,47.397 92.719,47.419 92.719,47.454 L92.719,49.496 L94.386,47.448 C94.414,47.408 94.438,47.397 94.478,47.397 L94.951,47.397 C94.985,47.397 95.003,47.431 94.974,47.466 L93.751,48.936 L95.095,51.255 C95.118,51.289 95.101,51.318 95.061,51.318 L94.599,51.318 C94.559,51.318 94.541,51.307 94.519,51.267 L93.416,49.334 L92.719,50.177 L92.719,51.261 C92.719,51.295 92.695,51.318 92.661,51.318 L92.263,51.318 C92.229,51.318 92.205,51.295 92.205,51.261 L92.205,47.454" id="Fill-84" fill="#84BF41"></path>
                <path d="M97.137,47.454 C97.137,47.419 97.16,47.397 97.194,47.397 L99.554,47.397 C99.588,47.397 99.611,47.419 99.611,47.454 L99.611,47.817 C99.611,47.852 99.588,47.875 99.554,47.875 L97.685,47.875 C97.662,47.875 97.651,47.887 97.651,47.909 L97.651,49.064 C97.651,49.086 97.662,49.098 97.685,49.098 L99.271,49.098 C99.306,49.098 99.328,49.121 99.328,49.155 L99.328,49.519 C99.328,49.554 99.306,49.576 99.271,49.576 L97.685,49.576 C97.662,49.576 97.651,49.588 97.651,49.611 L97.651,50.805 C97.651,50.828 97.662,50.84 97.685,50.84 L99.554,50.84 C99.588,50.84 99.611,50.862 99.611,50.897 L99.611,51.261 C99.611,51.295 99.588,51.318 99.554,51.318 L97.194,51.318 C97.16,51.318 97.137,51.295 97.137,51.261 L97.137,47.454" id="Fill-85" fill="#84BF41"></path>
                <path d="M103.955,48.526 C103.955,48.117 103.684,47.875 103.228,47.875 L102.311,47.875 C102.288,47.875 102.276,47.887 102.276,47.909 L102.276,49.144 C102.276,49.167 102.288,49.179 102.311,49.179 L103.228,49.179 C103.684,49.179 103.955,48.936 103.955,48.526 L103.955,48.526 Z M104.035,51.318 C103.995,51.318 103.978,51.301 103.96,51.261 L103.176,49.657 L102.311,49.657 C102.288,49.657 102.276,49.669 102.276,49.691 L102.276,51.261 C102.276,51.295 102.253,51.318 102.219,51.318 L101.82,51.318 C101.786,51.318 101.763,51.295 101.763,51.261 L101.763,47.454 C101.763,47.419 101.786,47.397 101.82,47.397 L103.239,47.397 C103.972,47.397 104.468,47.846 104.468,48.526 C104.468,49.058 104.168,49.443 103.695,49.594 L104.531,51.249 C104.555,51.284 104.537,51.318 104.497,51.318 L104.035,51.318 L104.035,51.318 Z" id="Fill-86" fill="#84BF41"></path>
                <path d="M111.357,49.935 L110.739,48.151 L110.729,48.151 L110.106,49.935 L111.357,49.935 L111.357,49.935 Z M110.481,47.454 C110.491,47.419 110.509,47.397 110.549,47.397 L110.924,47.397 C110.965,47.397 110.987,47.419 110.999,47.454 L112.343,51.261 C112.355,51.295 112.337,51.318 112.303,51.318 L111.9,51.318 C111.859,51.318 111.836,51.301 111.824,51.261 L111.525,50.407 L109.938,50.407 L109.638,51.261 C109.621,51.301 109.598,51.318 109.564,51.318 L109.159,51.318 C109.125,51.318 109.108,51.295 109.119,51.261 L110.481,47.454 L110.481,47.454 Z" id="Fill-87" fill="#84BF41"></path>
                <path d="M114.154,50.892 C114.132,50.868 114.126,50.834 114.149,50.805 L114.402,50.505 C114.426,50.477 114.454,50.477 114.484,50.499 C114.737,50.701 115.129,50.903 115.579,50.903 C116.121,50.903 116.444,50.632 116.444,50.234 C116.444,49.899 116.254,49.675 115.625,49.594 L115.43,49.565 C114.668,49.461 114.276,49.098 114.276,48.481 C114.276,47.782 114.777,47.333 115.556,47.333 C116.018,47.333 116.462,47.482 116.75,47.696 C116.779,47.72 116.784,47.748 116.762,47.777 L116.566,48.094 C116.542,48.123 116.514,48.123 116.484,48.106 C116.168,47.909 115.873,47.811 115.539,47.811 C115.061,47.811 114.795,48.071 114.795,48.446 C114.795,48.774 115.014,48.994 115.619,49.074 L115.81,49.103 C116.577,49.207 116.964,49.56 116.964,50.199 C116.964,50.886 116.479,51.382 115.533,51.382 C114.98,51.382 114.443,51.157 114.154,50.892" id="Fill-88" fill="#84BF41"></path>
                <path d="M118.942,50.892 C118.919,50.868 118.913,50.834 118.936,50.805 L119.19,50.505 C119.213,50.477 119.241,50.477 119.271,50.499 C119.525,50.701 119.916,50.903 120.366,50.903 C120.908,50.903 121.232,50.632 121.232,50.234 C121.232,49.899 121.041,49.675 120.412,49.594 L120.217,49.565 C119.455,49.461 119.063,49.098 119.063,48.481 C119.063,47.782 119.565,47.333 120.343,47.333 C120.805,47.333 121.249,47.482 121.537,47.696 C121.567,47.72 121.571,47.748 121.549,47.777 L121.353,48.094 C121.329,48.123 121.301,48.123 121.272,48.106 C120.955,47.909 120.66,47.811 120.326,47.811 C119.848,47.811 119.582,48.071 119.582,48.446 C119.582,48.774 119.801,48.994 120.406,49.074 L120.597,49.103 C121.364,49.207 121.751,49.56 121.751,50.199 C121.751,50.886 121.266,51.382 120.32,51.382 C119.767,51.382 119.231,51.157 118.942,50.892" id="Fill-89" fill="#84BF41"></path>
                <path d="M126.054,50.32 C126.101,50.177 126.141,49.923 126.141,49.357 C126.141,48.792 126.101,48.538 126.054,48.394 C125.933,48.019 125.656,47.811 125.218,47.811 C124.785,47.811 124.509,48.019 124.388,48.394 C124.341,48.538 124.301,48.792 124.301,49.357 C124.301,49.923 124.341,50.177 124.388,50.32 C124.509,50.695 124.785,50.903 125.218,50.903 C125.656,50.903 125.933,50.695 126.054,50.32 L126.054,50.32 Z M123.886,50.465 C123.811,50.24 123.781,50.003 123.781,49.357 C123.781,48.711 123.811,48.475 123.886,48.25 C124.087,47.644 124.561,47.333 125.218,47.333 C125.881,47.333 126.355,47.644 126.556,48.25 C126.631,48.475 126.66,48.711 126.66,49.357 C126.66,50.003 126.631,50.24 126.556,50.465 C126.355,51.07 125.881,51.382 125.218,51.382 C124.561,51.382 124.087,51.07 123.886,50.465 L123.886,50.465 Z" id="Fill-90" fill="#84BF41"></path>
                <path d="M128.73,49.357 C128.73,48.705 128.759,48.481 128.834,48.256 C129.029,47.639 129.497,47.333 130.137,47.333 C130.72,47.333 131.17,47.621 131.395,48.123 C131.406,48.151 131.401,48.181 131.371,48.198 L131.026,48.365 C130.991,48.383 130.956,48.365 130.944,48.336 C130.789,48.03 130.547,47.811 130.137,47.811 C129.71,47.811 129.451,48.019 129.324,48.389 C129.273,48.55 129.249,48.74 129.249,49.357 C129.249,49.975 129.273,50.165 129.324,50.326 C129.451,50.695 129.71,50.903 130.137,50.903 C130.547,50.903 130.789,50.684 130.944,50.378 C130.956,50.35 130.991,50.332 131.026,50.35 L131.371,50.517 C131.401,50.534 131.406,50.562 131.395,50.592 C131.17,51.094 130.72,51.382 130.137,51.382 C129.497,51.382 129.029,51.076 128.834,50.459 C128.759,50.234 128.73,50.009 128.73,49.357" id="Fill-91" fill="#84BF41"></path>
                <path d="M133.512,47.454 C133.512,47.419 133.535,47.397 133.569,47.397 L133.968,47.397 C134.002,47.397 134.026,47.419 134.026,47.454 L134.026,51.261 C134.026,51.295 134.002,51.318 133.968,51.318 L133.569,51.318 C133.535,51.318 133.512,51.295 133.512,51.261 L133.512,47.454" id="Fill-92" fill="#84BF41"></path>
                <path d="M138.267,49.935 L137.65,48.151 L137.639,48.151 L137.016,49.935 L138.267,49.935 L138.267,49.935 Z M137.391,47.454 C137.401,47.419 137.419,47.397 137.459,47.397 L137.834,47.397 C137.875,47.397 137.898,47.419 137.909,47.454 L139.253,51.261 C139.265,51.295 139.247,51.318 139.213,51.318 L138.81,51.318 C138.769,51.318 138.746,51.301 138.734,51.261 L138.435,50.407 L136.848,50.407 L136.548,51.261 C136.531,51.301 136.508,51.318 136.474,51.318 L136.069,51.318 C136.035,51.318 136.018,51.295 136.029,51.261 L137.391,47.454 L137.391,47.454 Z" id="Fill-93" fill="#84BF41"></path>
                <path d="M142.12,51.318 C142.086,51.318 142.063,51.295 142.063,51.261 L142.063,47.909 C142.063,47.887 142.051,47.875 142.028,47.875 L140.955,47.875 C140.921,47.875 140.898,47.852 140.898,47.817 L140.898,47.454 C140.898,47.419 140.921,47.397 140.955,47.397 L143.684,47.397 C143.718,47.397 143.741,47.419 143.741,47.454 L143.741,47.817 C143.741,47.852 143.718,47.875 143.684,47.875 L142.61,47.875 C142.587,47.875 142.576,47.887 142.576,47.909 L142.576,51.261 C142.576,51.295 142.553,51.318 142.519,51.318 L142.12,51.318" id="Fill-94" fill="#84BF41"></path>
                <path d="M145.731,47.454 C145.731,47.419 145.754,47.397 145.788,47.397 L148.148,47.397 C148.182,47.397 148.205,47.419 148.205,47.454 L148.205,47.817 C148.205,47.852 148.182,47.875 148.148,47.875 L146.278,47.875 C146.256,47.875 146.244,47.887 146.244,47.909 L146.244,49.064 C146.244,49.086 146.256,49.098 146.278,49.098 L147.864,49.098 C147.9,49.098 147.922,49.121 147.922,49.155 L147.922,49.519 C147.922,49.554 147.9,49.576 147.864,49.576 L146.278,49.576 C146.256,49.576 146.244,49.588 146.244,49.611 L146.244,50.805 C146.244,50.828 146.256,50.84 146.278,50.84 L148.148,50.84 C148.182,50.84 148.205,50.862 148.205,50.897 L148.205,51.261 C148.205,51.295 148.182,51.318 148.148,51.318 L145.788,51.318 C145.754,51.318 145.731,51.295 145.731,51.261 L145.731,47.454" id="Fill-95" fill="#84BF41"></path>
            </g>
        </g>
    </g>
</svg>